<svg width="410" height="301" viewBox="0 0 410 301" fill="none" xmlns="http://www.w3.org/2000/svg">
<path d="M7.38636 157.92V149.114C15.2936 149.114 20.8097 147.456 23.9347 144.142C27.107 140.828 28.6932 135.288 28.6932 127.523V104.795C28.6932 98.2614 29.3087 92.6032 30.5398 87.821C31.8182 83.0388 33.8778 79.0852 36.7188 75.9602C39.5597 72.8352 43.3475 70.5152 48.0824 69C52.8172 67.4848 58.6648 66.7273 65.625 66.7273V80.6477C60.1326 80.6477 55.8002 81.5 52.6278 83.2045C49.5028 84.9091 47.2775 87.5606 45.9517 91.1591C44.6733 94.7102 44.0341 99.2557 44.0341 104.795V133.205C44.0341 136.898 43.5369 140.259 42.5426 143.29C41.5956 146.32 39.8201 148.924 37.2159 151.102C34.6117 153.28 30.8949 154.961 26.0653 156.145C21.2831 157.329 15.0568 157.92 7.38636 157.92ZM65.625 248.545C58.6648 248.545 52.8172 247.788 48.0824 246.273C43.3475 244.758 39.5597 242.438 36.7188 239.312C33.8778 236.188 31.8182 232.234 30.5398 227.452C29.3087 222.67 28.6932 217.011 28.6932 210.477V187.75C28.6932 179.985 27.107 174.445 23.9347 171.131C20.8097 167.816 15.2936 166.159 7.38636 166.159V157.352C15.0568 157.352 21.2831 157.944 26.0653 159.128C30.8949 160.312 34.6117 161.992 37.2159 164.17C39.8201 166.348 41.5956 168.953 42.5426 171.983C43.5369 175.013 44.0341 178.375 44.0341 182.068V210.477C44.0341 216.017 44.6733 220.563 45.9517 224.114C47.2775 227.665 49.5028 230.293 52.6278 231.997C55.8002 233.749 60.1326 234.625 65.625 234.625V248.545ZM7.38636 166.159V149.114H24.1477V166.159H7.38636ZM405.682 157.352V166.159C397.775 166.159 392.235 167.816 389.062 171.131C385.938 174.445 384.375 179.985 384.375 187.75V210.477C384.375 217.011 383.736 222.67 382.457 227.452C381.226 232.234 379.19 236.188 376.349 239.312C373.509 242.438 369.721 244.758 364.986 246.273C360.251 247.788 354.403 248.545 347.443 248.545V234.625C352.936 234.625 357.244 233.749 360.369 231.997C363.542 230.293 365.767 227.665 367.045 224.114C368.371 220.563 369.034 216.017 369.034 210.477V182.068C369.034 178.375 369.508 175.013 370.455 171.983C371.449 168.953 373.248 166.348 375.852 164.17C378.456 161.992 382.15 160.312 386.932 159.128C391.761 157.944 398.011 157.352 405.682 157.352ZM347.443 66.7273C354.403 66.7273 360.251 67.4848 364.986 69C369.721 70.5152 373.509 72.8352 376.349 75.9602C379.19 79.0852 381.226 83.0388 382.457 87.821C383.736 92.6032 384.375 98.2614 384.375 104.795V127.523C384.375 135.288 385.938 140.828 389.062 144.142C392.235 147.456 397.775 149.114 405.682 149.114V157.92C398.011 157.92 391.761 157.329 386.932 156.145C382.15 154.961 378.456 153.28 375.852 151.102C373.248 148.924 371.449 146.32 370.455 143.29C369.508 140.259 369.034 136.898 369.034 133.205V104.795C369.034 99.2557 368.371 94.7102 367.045 91.1591C365.767 87.5606 363.542 84.9091 360.369 83.2045C357.244 81.5 352.936 80.6477 347.443 80.6477V66.7273ZM405.682 149.114V166.159H388.92V149.114H405.682Z" fill="#9EFF01"/>
<path d="M125.293 74.957C125.293 73.069 126.4 72.125 128.613 72.125C134.928 72.125 144.141 72.0599 156.25 71.9297C168.424 71.7995 177.507 71.7344 183.496 71.7344C185.319 71.7344 186.882 72.6458 188.184 74.4688L204.98 171.734C206.022 165.484 207.878 156.695 210.547 145.367C213.216 133.974 214.941 126.422 215.723 122.711L225.488 73.8828C226.009 72.3203 239.355 71.5391 265.527 71.5391H281.152C282.389 71.9948 283.171 73.1016 283.496 74.8594L261.621 153.961C261.165 155.719 260.286 159.625 258.984 165.68C257.747 171.669 256.478 177.431 255.176 182.965C253.939 188.434 252.507 194.163 250.879 200.152C249.251 206.142 247.493 211.09 245.605 214.996C243.783 218.902 242.025 221.148 240.332 221.734C237.988 221.734 234.505 221.637 229.883 221.441C225.26 221.246 221.777 221.148 219.434 221.148H212.402C207.975 221.539 203.125 221.799 197.852 221.93C192.643 222.06 187.077 222.158 181.152 222.223C175.228 222.288 170.475 222.385 166.895 222.516L125.293 74.957Z" fill="white"/>
<path d="M139.236 23.64L127.952 59H123.376L112.04 23.64H116.824L122.44 41.58L125.82 52.916L129.252 41.528L134.764 23.64H139.236ZM162.939 59.26C161.344 59.26 160.062 58.896 159.091 58.168C158.155 57.44 157.496 56.5387 157.115 55.464C155.416 56.9547 153.874 58.012 152.487 58.636C151.1 59.2253 149.714 59.52 148.327 59.52C146.074 59.52 144.41 58.792 143.335 57.336C142.26 55.88 141.723 54.0947 141.723 51.98C141.723 50.5587 141.983 49.2933 142.503 48.184C143.023 47.0747 143.907 46.208 145.155 45.584C146.403 44.9253 148.084 44.596 150.199 44.596C151.135 44.596 152.158 44.6653 153.267 44.804C154.376 44.908 155.503 45.0467 156.647 45.22V41.736C156.647 39.7947 156.214 38.4773 155.347 37.784C154.515 37.056 153.284 36.692 151.655 36.692C149.436 36.692 146.958 37.2987 144.219 38.512L142.867 34.976C144.462 34.248 145.987 33.6933 147.443 33.312C148.899 32.9307 150.372 32.74 151.863 32.74C154.29 32.74 156.144 33.1387 157.427 33.936C158.71 34.7333 159.594 35.7907 160.079 37.108C160.564 38.4253 160.807 39.864 160.807 41.424V52.552C160.807 53.3493 160.963 54.0253 161.275 54.58C161.587 55.1 162.211 55.36 163.147 55.36H163.719V59.26H162.939ZM145.935 51.928C145.935 53.1067 146.212 54.06 146.767 54.788C147.322 55.516 148.119 55.88 149.159 55.88C150.06 55.88 151.1 55.62 152.279 55.1C153.458 54.5453 154.914 53.4533 156.647 51.824V48.548C154.29 48.1667 152.21 47.976 150.407 47.976C148.812 47.976 147.668 48.3053 146.975 48.964C146.282 49.6227 145.935 50.6107 145.935 51.928ZM181.876 36.744C180.905 36.744 179.813 37.004 178.6 37.524C177.386 38.0093 175.861 38.98 174.024 40.436V59H169.76V33.26H173.816V36.848C175.653 35.3227 177.282 34.2653 178.704 33.676C180.125 33.052 181.529 32.74 182.916 32.74C184.545 32.74 185.897 33.1213 186.972 33.884C188.046 34.612 188.844 35.6693 189.364 37.056C191.27 35.4267 192.969 34.3 194.46 33.676C195.985 33.052 197.476 32.74 198.932 32.74C201.22 32.74 202.97 33.5027 204.184 35.028C205.397 36.5187 206.004 38.6507 206.004 41.424V59H201.74V42.048C201.74 38.512 200.457 36.744 197.892 36.744C196.921 36.744 195.812 37.004 194.564 37.524C193.35 38.0093 191.825 38.98 189.988 40.436C190.022 40.5747 190.04 40.7307 190.04 40.904C190.04 41.0773 190.04 41.2507 190.04 41.424V59H185.776V42.048C185.776 38.512 184.476 36.744 181.876 36.744ZM221.247 55.724C224.714 55.724 226.447 54.5453 226.447 52.188C226.447 51.1827 226.135 50.3853 225.511 49.796C224.887 49.2067 223.743 48.704 222.079 48.288L219.219 47.56C217.104 47.04 215.527 46.1387 214.487 44.856C213.447 43.5387 212.927 41.9787 212.927 40.176C212.927 38.8587 213.222 37.6453 213.811 36.536C214.4 35.392 215.336 34.4733 216.619 33.78C217.902 33.0867 219.566 32.74 221.611 32.74C222.928 32.74 224.263 32.896 225.615 33.208C227.002 33.4853 228.406 33.9707 229.827 34.664L228.475 38.252C225.944 37.108 223.656 36.536 221.611 36.536C218.595 36.536 217.087 37.6627 217.087 39.916C217.087 40.7827 217.364 41.528 217.919 42.152C218.474 42.776 219.514 43.2787 221.039 43.66L223.899 44.388C226.187 44.9427 227.868 45.844 228.943 47.092C230.018 48.34 230.555 49.952 230.555 51.928C230.555 53.3493 230.243 54.6493 229.619 55.828C229.03 56.972 228.059 57.8733 226.707 58.532C225.39 59.1907 223.604 59.52 221.351 59.52C219.86 59.52 218.37 59.364 216.879 59.052C215.423 58.74 213.915 58.2373 212.355 57.544L213.499 54.008C214.99 54.5973 216.342 55.0307 217.555 55.308C218.768 55.5853 219.999 55.724 221.247 55.724ZM241.873 26.968H237.089V22.184H241.873V26.968ZM241.613 59H237.349V33.26H241.613V59ZM253.614 59H248.83V54.268H253.614V59ZM267.05 23.64L277.814 49.848L288.63 23.64H293.778V59H289.358V43.868L289.93 30.244L279.79 54.84H275.526L265.594 30.14L266.166 43.868V59H261.746V23.64H267.05Z" fill="#9EFF01"/>
</svg>
